<svg height="512" viewBox="0 0 512 512" width="512" xmlns="http://www.w3.org/2000/svg"><g transform="matrix(.768 0 0 .768 10.24 10.24)"><path d="m560.29446 498.92849h-484.419416c-3.373002 0-6.172544-258.98463-8.380544-260.73954 0 0 200.91167-163.770159 219.4915-178.84161 16.48212-13.36986 18.85527-16.48539 33.0135-16.48529s16.24593 2.88461 33.0125 16.48529c17.3747 14.093971 219.4935 178.84161 219.4935 178.84161-2.208 1.75491-8.83804 260.73955-12.21104 260.73954z" fill="#1878c2" stroke-width=".884135"/><path d="m77.500237-50.013721h381.671993a10 10 45 0 1 10 10v432.795931a10 10 135 0 1 -10 10h-381.671993a10 10 45 0 1 -10-10v-432.795931a10 10 135 0 1 10-10z" fill="#e6e6e6" height="452.79593" stroke-width=".615774" transform="translate(51.663765 137.08252)" width="401.672" x="67.500237" y="-50.013721"/><path d="m8.4192975 9.3402924q-.5546684 0-1.0026698-.2240007-.4480014-.2346674-.714669-.6293353-.2666675-.3946679-.2880009-.9066695v-1.8240058q.0213334-.5120016.2880009-.9066695.2773343-.4053347.714669-.6400021.4480014-.2346674 1.0026698-.2346674.7146689 0 1.280004.3520011.5653355.3520012.8853365.9600031.330667.6080019.330667 1.3760043 0 .7573358-.330667 1.3653377-.320001.6080019-.8853365.960003-.5653351.3520011-1.280004.3520011zm-2.8586757 2.0480066v-7.3066899h1.3973378v1.354671l-.2346675 1.2480039.2240008 1.248004v3.456011zm2.6133416-3.3386773q.3840012 0 .6826688-.1706672.2986676-.1813339.4586681-.4906683.1706672-.320001.1706672-.7360023 0-.4053346-.1706672-.7146689-.1600005-.320001-.4586681-.4906682-.2986676-.1813339-.6826688-.1813339-.3733345 0-.6720021.1813339-.2986676.1706672-.4693348.4906682-.1600006.3093343-.1600006.7146689 0 .4160013.1600006.7360023.1706672.3093344.4586681.4906683.2986676.1706672.6826688.1706672z" transform="matrix(41.666667 0 0 41.666667 -13.333333 -7.996073)"/><g fill="#1878c2" transform="translate(64 160.24475)"><path d="m222.987 256-219.493 178.047c-2.159-2.183-3.494-5.192-3.494-8.492v-339.109c0-3.3 1.335-6.309 3.494-8.493z"/><path d="m512 86.446v339.109c0 3.3-1.335 6.309-3.494 8.493l-219.493-178.048 219.493-178.047c2.159 2.183 3.494 5.192 3.494 8.493z"/></g><path d="m563.8665 597.13795h-487.734c-3.373 0-6.43-1.09046-8.638-2.84537 0 0 200.91167-163.77016 219.4915-178.84163 16.48212-13.36986 18.85527-16.48539 33.0135-16.48529s16.24593 2.88461 33.0125 16.48529c17.3747 14.09399 219.4935 178.84163 219.4935 178.84163-2.208 1.75491-5.266 2.84537-8.639 2.84537z" fill="#479cdc" stroke-width=".884135"/></g></svg>